HIERARCHY
ROOT Hips
{
	OFFSET 54.475800 -37.102116 91.561989
	CHANNELS 6 Xposition Yposition Zposition Xrotation Yrotation Zrotation
	JOINT spine
	{
		OFFSET 0.000000 -0.393700 6.846367
		CHANNELS 3 Xrotation Yrotation Zrotation
		JOINT spine1
		{
			OFFSET 0.000000 -0.000004 9.496208
			CHANNELS 3 Xrotation Yrotation Zrotation
			JOINT spine2
			{
				OFFSET 0.000000 0.000000 9.099091
				CHANNELS 3 Xrotation Yrotation Zrotation
				JOINT Neck
				{
					OFFSET 0.000000 -1.113785 23.361214
					CHANNELS 3 Xrotation Yrotation Zrotation
					JOINT Head
					{
						OFFSET 0.000000 0.000000 7.058014
						CHANNELS 3 Xrotation Yrotation Zrotation
						End Site
						{
							OFFSET 0.000000 5.634186 17.084396
						}
					}
				}
				JOINT RightShoulder
				{
					OFFSET -3.831360 0.533489 9.826309
					CHANNELS 3 Xrotation Yrotation Zrotation
					JOINT RightArm
					{
						OFFSET 0.000000 -0.000004 12.888115
						CHANNELS 3 Xrotation Yrotation Zrotation
						JOINT RightArmRoll
						{
							OFFSET 0.000000 0.000000 6.506165
							CHANNELS 3 Xrotation Yrotation Zrotation
							JOINT RightForeArm
							{
								OFFSET 0.000000 -0.000004 18.950104
								CHANNELS 3 Xrotation Yrotation Zrotation
								JOINT RightForeArmRoll
								{
									OFFSET 0.000000 0.000000 7.300919
									CHANNELS 3 Xrotation Yrotation Zrotation
									JOINT RightHand
									{
										OFFSET 0.000000 -0.000004 14.651398
										CHANNELS 3 Xrotation Yrotation Zrotation
										End Site
										{
											OFFSET 0.000000 0.000000 0.100006
										}
									}
								}
							}
						}
					}
				}
				JOINT LeftShoulder
				{
					OFFSET 3.831360 0.533489 9.826309
					CHANNELS 3 Xrotation Yrotation Zrotation
					JOINT LeftArm
					{
						OFFSET 0.000000 -0.000004 12.888115
						CHANNELS 3 Xrotation Yrotation Zrotation
						JOINT LeftArmRoll
						{
							OFFSET 0.000000 0.000000 6.506165
							CHANNELS 3 Xrotation Yrotation Zrotation
							JOINT LeftForeArm
							{
								OFFSET 0.000000 -0.000004 18.950104
								CHANNELS 3 Xrotation Yrotation Zrotation
								JOINT LeftForeArmRoll
								{
									OFFSET 0.000000 0.000000 7.300919
									CHANNELS 3 Xrotation Yrotation Zrotation
									JOINT LeftHand
									{
										OFFSET 0.000000 -0.000004 14.651398
										CHANNELS 3 Xrotation Yrotation Zrotation
										End Site
										{
											OFFSET 0.000000 0.000000 0.100006
										}
									}
								}
							}
						}
					}
				}
			}
		}
	}
	JOINT RightUpLeg
	{
		OFFSET -6.068371 0.933475 -1.112778
		CHANNELS 3 Xrotation Yrotation Zrotation
		JOINT RightUpLegRoll
		{
			OFFSET 0.000000 -0.000004 17.179596
			CHANNELS 3 Xrotation Yrotation Zrotation
			JOINT RightLeg
			{
				OFFSET 0.000000 0.000004 -21.274300
				CHANNELS 3 Xrotation Yrotation Zrotation
				JOINT RightLegRoll
				{
					OFFSET 0.000000 -0.000004 21.343903
					CHANNELS 3 Xrotation Yrotation Zrotation
					JOINT RightFoot
					{
						OFFSET 0.000000 0.000000 17.765198
						CHANNELS 3 Xrotation Yrotation Zrotation
						JOINT RightToeBase
						{
							OFFSET 0.000000 -0.000004 14.850815
							CHANNELS 3 Xrotation Yrotation Zrotation
							End Site
							{
								OFFSET 0.006294 0.829006 7.192123
							}
						}
					}
				}
			}
		}
	}
	JOINT LeftUpLeg
	{
		OFFSET 6.068371 0.933475 -1.112778
		CHANNELS 3 Xrotation Yrotation Zrotation
		JOINT LeftUpLegRoll
		{
			OFFSET 0.000000 -0.000004 17.179703
			CHANNELS 3 Xrotation Yrotation Zrotation
			JOINT LeftLeg
			{
				OFFSET 0.000000 -0.000004 21.274208
				CHANNELS 3 Xrotation Yrotation Zrotation
				JOINT LeftLegRoll
				{
					OFFSET 0.000000 0.000000 21.541199
					CHANNELS 3 Xrotation Yrotation Zrotation
					JOINT LeftFoot
					{
						OFFSET 0.000000 -0.000004 17.567902
						CHANNELS 3 Xrotation Yrotation Zrotation
						JOINT LeftToeBase
						{
							OFFSET 0.000000 -0.000004 14.850800
							CHANNELS 3 Xrotation Yrotation Zrotation
							End Site
							{
								OFFSET -0.028210 0.829006 7.192123
							}
						}
					}
				}
			}
		}
	}
}
MOTION
Frames: 8
Frame Time: 0.041667
52.752796 -10.538214 77.213799 31.085403 1.322296 -4.127698 0.853459 -0.276577 0.255791 5.711058 -0.554891 0.518662 7.356155 -0.548621 0.525195 -18.915389 0.174821 -0.228995 6.122354 -2.103673 0.024470 7.469526 -58.630603 8.804359 114.372153 -50.318239 85.322709 0.000002 -0.000002 -0.000004 32.057281 -26.335483 8.924715 0.000002 0.000011 -2.999990 -4.999620 -7.998759 -0.000069 -6.292472 49.914015 6.598081 -58.003134 147.901435 62.129368 -0.000004 0.000004 0.000003 0.186488 24.456189 2.493169 0.000005 -0.000022 3.228171 -4.999964 7.999084 -0.000034 -79.847732 -182.297503 -1.599802 179.999950 -0.000005 -0.539006 131.535196 -2.402137 -2.805947 -0.000000 -0.000005 0.848122 67.916143 7.014536 1.893866 25.456960 -7.355614 0.000001 -80.755854 164.829417 0.706240 -0.000018 -0.000004 -0.382299 -54.055299 5.520395 4.763481 0.000000 -0.000001 -0.777626 69.982856 -6.995522 -1.785568 25.456955 7.355613 -0.000012 
52.769196 -10.653618 77.313095 30.975847 1.328741 -4.099123 0.847562 -0.278490 0.253090 5.699259 -0.558896 0.512810 7.344354 -0.552697 0.519390 -18.933856 0.133763 -0.234293 6.162891 -2.075495 0.030693 7.532459 -58.742987 8.858469 114.349873 -50.253981 85.613225 -0.000000 -0.000002 -0.000006 31.650666 -26.411163 8.829416 0.000001 0.000010 -2.999993 -4.999619 -7.998760 -0.000072 -6.248586 50.005581 6.551623 -58.012669 147.929289 61.741215 -0.000004 0.000004 0.000000 0.192746 24.110284 2.583014 0.000005 -0.000022 3.234331 -4.999964 7.999088 -0.000030 -79.533974 -182.275892 -1.611370 179.999950 -0.000005 -0.540003 131.695459 -2.407708 -2.797985 -0.000000 -0.000005 0.843589 67.909832 7.012811 1.898929 25.456959 -7.355615 0.000001 -80.428988 164.857489 0.685529 -0.000013 -0.000003 -0.384877 -53.891104 5.530945 4.747923 0.000000 -0.000001 -0.773681 69.982248 -6.994389 -1.789007 25.456957 7.355615 -0.000012 
52.760098 -10.775019 77.417900 30.863914 1.335498 -4.070493 0.841990 -0.280363 0.250261 5.688112 -0.562652 0.506514 7.333196 -0.556521 0.513141 -18.966230 0.102403 -0.233550 6.224909 -2.059029 0.041583 7.595627 -58.856853 8.912501 114.325018 -50.190122 85.897531 0.000001 -0.000002 -0.000007 31.233400 -26.476687 8.729107 -0.000001 0.000011 -2.999994 -4.999615 -7.998762 -0.000067 -6.210415 50.091422 6.511818 -58.016160 147.959164 61.353397 -0.000004 0.000004 0.000002 0.189636 23.766391 2.661975 0.000006 -0.000020 3.239870 -4.999964 7.999087 -0.000030 -79.217319 -182.257505 -1.625373 179.999950 -0.000004 -0.541001 131.853059 -2.409772 -2.788401 -0.000000 -0.000005 0.839153 67.905830 7.011053 1.903639 25.456955 -7.355614 0.000001 -80.099438 164.885234 0.666253 -0.000015 -0.000005 -0.387480 -53.727351 5.540956 4.731995 -0.000000 -0.000001 -0.769695 69.982699 -6.993175 -1.792363 25.456957 7.355614 -0.000010 
52.759895 -10.944002 77.473793 30.749457 1.342780 -4.041288 0.836647 -0.282233 0.247224 5.677414 -0.566242 0.499581 7.322502 -0.560174 0.506252 -19.012819 0.079685 -0.227319 6.308502 -2.054127 0.056959 7.659767 -58.972639 8.967246 114.296351 -50.125280 86.175383 0.000001 -0.000002 -0.000003 30.802449 -26.533880 8.624194 -0.000001 0.000013 -2.999990 -4.999616 -7.998762 -0.000070 -6.177608 50.172357 6.478283 -58.014773 147.991908 60.966453 -0.000004 0.000004 0.000001 0.186538 23.422493 2.731018 0.000005 -0.000022 3.244950 -4.999963 7.999085 -0.000033 -78.897530 -182.241140 -1.641841 179.999950 -0.000005 -0.541998 132.008214 -2.408995 -2.776967 -0.000000 -0.000005 0.834795 67.903746 7.009380 1.908144 25.456959 -7.355614 0.000001 -79.767061 164.913210 0.647568 -0.000014 -0.000003 -0.390116 -53.564235 5.550332 4.715679 -0.000000 -0.000001 -0.765680 69.983778 -6.991980 -1.795683 25.456955 7.355615 -0.000011 
52.757298 -11.056004 77.583199 30.632927 1.350529 -4.011663 0.831483 -0.284101 0.244036 5.667084 -0.569686 0.492154 7.312158 -0.563680 0.498869 -19.071512 0.064384 -0.216348 6.410848 -2.059065 0.076248 7.724791 -59.090296 9.022633 114.266606 -50.059235 86.450442 0.000000 -0.000003 -0.000005 30.360112 -26.583071 8.515247 -0.000001 0.000012 -2.999993 -4.999619 -7.998759 -0.000073 -6.149513 50.248834 6.450306 -58.008448 148.027439 60.579653 -0.000004 0.000004 0.000001 0.183456 23.078999 2.790807 0.000005 -0.000018 3.249613 -4.999964 7.999087 -0.000032 -78.575172 -182.226537 -1.661258 179.999950 -0.000005 -0.544006 132.161251 -2.406032 -2.764416 -0.000000 -0.000005 0.830505 67.903541 7.007677 1.912522 25.456959 -7.355615 0.000001 -79.432033 164.941296 0.628483 -0.000021 -0.000004 -0.392776 -53.401441 5.559179 4.699001 -0.000000 -0.000001 -0.761641 69.985615 -6.990801 -1.798959 25.456959 7.355613 -0.000011 
52.760597 -11.156219 77.718201 30.514498 1.358683 -3.981792 0.826443 -0.285966 0.240749 5.656988 -0.573006 0.484377 7.302073 -0.567059 0.491135 -19.140509 0.055267 -0.201380 6.529077 -2.072125 0.098883 7.790556 -59.209394 9.078540 114.234026 -49.993238 86.720603 0.000000 -0.000002 -0.000007 29.908712 -26.624736 8.402917 -0.000003 0.000012 -2.999994 -4.999619 -7.998756 -0.000070 -6.125550 50.321374 6.427167 -57.998804 148.064185 60.195208 -0.000004 0.000004 0.000002 0.180390 22.735902 2.841994 0.000005 -0.000020 3.253881 -4.999962 7.999087 -0.000032 -78.250663 -182.213970 -1.680726 179.999950 -0.000005 -0.545003 132.312580 -2.400888 -2.751745 -0.000000 -0.000005 0.826274 67.904716 7.006012 1.916622 25.456960 -7.355614 0.000001 -79.095052 164.969081 0.610556 -0.000015 -0.000004 -0.395451 -53.238910 5.567575 4.682038 -0.000000 -0.000001 -0.757579 69.987979 -6.989599 -1.802198 25.456959 7.355614 -0.000011 
52.755795 -11.291420 77.806190 30.394673 1.367171 -3.951844 0.821487 -0.287827 0.237418 5.647068 -0.576222 0.476393 7.292142 -0.570333 0.483196 -19.217808 0.051106 -0.183153 6.660345 -2.091611 0.124299 7.856857 -59.329646 9.134785 114.199103 -49.927809 86.986646 0.000001 -0.000002 -0.000003 29.450652 -26.659130 8.287762 -0.000000 0.000014 -2.999991 -4.999615 -7.998764 -0.000067 -6.105084 50.390424 6.408132 -57.985820 148.102147 59.812226 -0.000004 0.000004 0.000002 0.177343 22.393311 2.885229 0.000005 -0.000023 3.257781 -4.999962 7.999087 -0.000032 -77.924228 -182.202973 -1.701846 179.999950 -0.000005 -0.546997 132.462681 -2.394252 -2.737717 -0.000000 -0.000005 0.822092 67.907168 7.004379 1.920546 25.456957 -7.355614 0.000001 -78.756452 164.996702 0.592933 -0.000019 -0.000004 -0.398132 -53.076434 5.575612 4.664834 0.000000 -0.000001 -0.753500 69.990854 -6.988379 -1.805301 25.456957 7.355614 -0.000012 
52.754002 -11.400108 77.934998 30.273646 1.375952 -3.922003 0.816555 -0.289685 0.234095 5.637201 -0.579356 0.468349 7.282261 -0.573525 0.475196 -19.301409 0.050671 -0.162410 6.801821 -2.115796 0.151923 7.923564 -59.450875 9.191274 114.163381 -49.863045 87.250517 0.000001 -0.000003 -0.000004 28.987968 -26.686669 8.170256 -0.000003 0.000011 -2.999993 -4.999618 -7.998763 -0.000071 -6.087494 50.456619 6.392477 -57.969434 148.141271 59.429934 -0.000004 0.000004 0.000000 0.174318 22.051510 2.921186 0.000005 -0.000020 3.261338 -4.999963 7.999087 -0.000030 -77.596304 -182.193356 -1.724474 179.999950 -0.000005 -0.547995 132.611920 -2.386120 -2.723282 -0.000000 -0.000005 0.817948 67.910372 7.002768 1.924327 25.456959 -7.355615 0.000001 -78.416418 165.023804 0.575319 -0.000015 -0.000004 -0.400804 -52.913831 5.583383 4.647459 -0.000000 -0.000001 -0.749407 69.994057 -6.987165 -1.808484 25.456959 7.355613 -0.000011 
